<svg version="1.1" id="Layer_1" xmlns="http://www.w3.org/2000/svg" xmlns:xlink="http://www.w3.org/1999/xlink" x="0px" y="0px"
	 width="100%" viewBox="0 0 512 512" enable-background="new 0 0 512 512" xml:space="preserve">
<path fill="#000000" opacity="1.000000" stroke="none" 
	d="
M1.000000,200.000000 
	C1.000000,133.333328 1.000000,67.166664 1.000000,1.000000 
	C171.666672,1.000000 342.333344,1.000000 513.000000,1.000000 
	C513.000000,171.666672 513.000000,342.333344 513.000000,513.000000 
	C342.333344,513.000000 171.666672,513.000000 1.000000,513.000000 
	C1.000000,408.833344 1.000000,304.666656 1.000000,200.000000 
M46.014622,333.506805 
	C55.484425,359.536346 68.908714,383.346985 87.485550,403.898315 
	C145.057846,467.589783 216.660568,492.681610 300.951752,477.423370 
	C358.637909,466.981140 404.742310,436.179932 439.522217,388.872772 
	C462.297974,357.893524 475.876007,323.087524 480.753632,285.047119 
	C483.362762,264.698456 483.050262,244.249176 480.044769,223.850220 
	C476.348389,198.761826 468.615875,175.032913 456.923981,152.593597 
	C442.237274,124.406624 422.137695,100.722839 397.396057,80.779785 
	C380.552582,67.203079 362.090576,56.436722 342.233795,48.193035 
	C320.108673,39.007648 296.826172,33.779209 272.973938,32.184452 
	C252.359619,30.806183 231.672531,31.892891 211.416534,36.368427 
	C188.561630,41.418186 166.821411,49.538670 146.369125,61.151199 
	C119.752945,76.263512 97.181892,96.072998 78.676117,120.212738 
	C52.144306,154.821960 36.860561,194.198334 33.276466,237.681717 
	C30.600590,270.146332 34.379551,302.015686 46.014622,333.506805 
z"/>
<path fill="#E96558" opacity="1.000000" stroke="none" 
	d="
M45.891617,333.132446 
	C34.379551,302.015686 30.600590,270.146332 33.276466,237.681717 
	C36.860561,194.198334 52.144306,154.821960 78.676117,120.212738 
	C97.181892,96.072998 119.752945,76.263512 146.369125,61.151199 
	C166.821411,49.538670 188.561630,41.418186 211.416534,36.368427 
	C231.672531,31.892891 252.359619,30.806183 272.973938,32.184452 
	C296.826172,33.779209 320.108673,39.007648 342.233795,48.193035 
	C362.090576,56.436722 380.552582,67.203079 397.396057,80.779785 
	C422.137695,100.722839 442.237274,124.406624 456.923981,152.593597 
	C468.615875,175.032913 476.348389,198.761826 480.044769,223.850220 
	C483.050262,244.249176 483.362762,264.698456 480.753632,285.047119 
	C475.876007,323.087524 462.297974,357.893524 439.522217,388.872772 
	C404.742310,436.179932 358.637909,466.981140 300.951752,477.423370 
	C216.660568,492.681610 145.057846,467.589783 87.485550,403.898315 
	C68.908714,383.346985 55.484425,359.536346 45.891617,333.132446 
M281.534149,462.026367 
	C283.676514,461.733765 285.827423,461.493134 287.959961,461.140991 
	C356.881287,449.760986 408.090302,413.124451 440.876984,351.732452 
	C462.414368,311.404449 468.820007,267.980042 461.034485,222.841736 
	C450.772888,163.347641 419.993591,116.788101 369.744629,83.744446 
	C326.371613,55.222435 278.258514,45.484974 226.970993,52.951466 
	C174.597992,60.575977 131.288254,85.279709 97.903603,126.099937 
	C62.860664,168.947800 47.509235,218.460236 51.867138,273.921112 
	C54.215073,303.802216 62.605247,331.742035 77.355423,357.806244 
	C101.191093,399.924927 135.545746,430.143188 180.271866,448.514099 
	C212.517029,461.758514 246.078094,465.702179 281.534149,462.026367 
z"/>
<path fill="#E74C3C" opacity="1.000000" stroke="none" 
	d="
M281.083374,462.056274 
	C246.078094,465.702179 212.517029,461.758514 180.271866,448.514099 
	C135.545746,430.143188 101.191093,399.924927 77.355423,357.806244 
	C62.605247,331.742035 54.215073,303.802216 51.867138,273.921112 
	C47.509235,218.460236 62.860664,168.947800 97.903603,126.099937 
	C131.288254,85.279709 174.597992,60.575977 226.970993,52.951466 
	C278.258514,45.484974 326.371613,55.222435 369.744629,83.744446 
	C419.993591,116.788101 450.772888,163.347641 461.034485,222.841736 
	C468.820007,267.980042 462.414368,311.404449 440.876984,351.732452 
	C408.090302,413.124451 356.881287,449.760986 287.959961,461.140991 
	C285.827423,461.493134 283.676514,461.733765 281.083374,462.056274 
M310.890961,277.372345 
	C332.496246,277.372345 354.101532,277.372345 376.245911,277.372345 
	C376.245911,274.993958 376.245911,273.207977 376.245911,271.421997 
	C376.245697,236.933289 376.256439,202.444565 376.240906,167.955856 
	C376.232391,148.976883 365.462067,138.168045 346.545349,138.164215 
	C287.231415,138.152252 227.917511,138.153076 168.603592,138.163544 
	C149.601822,138.166901 138.764389,148.924606 138.759995,167.806808 
	C138.746140,227.287338 138.745773,286.767883 138.760223,346.248413 
	C138.764755,364.923004 149.601776,375.829926 168.151917,375.840240 
	C202.807236,375.859497 237.462570,375.846283 272.117889,375.846588 
	C273.895905,375.846588 275.673920,375.846588 277.933990,375.846588 
	C277.933990,373.452759 277.933929,371.657898 277.933960,369.863007 
	C277.934296,350.702606 277.916687,331.542206 277.939941,312.381836 
	C277.964417,292.204803 289.785706,279.312256 310.890961,277.372345 
M309.584656,350.084778 
	C331.483948,328.187256 353.383240,306.289703 376.352539,283.322235 
	C373.412933,283.322235 372.122498,283.322174 370.832062,283.322266 
	C351.354553,283.323547 331.876831,283.269989 312.399597,283.342560 
	C295.123199,283.406921 283.951843,294.591949 283.911346,311.802948 
	C283.865112,331.446808 283.899078,351.090912 283.898193,370.734894 
	C283.898132,371.974640 283.898193,373.214386 283.898193,376.020325 
	C293.020721,366.807526 301.052673,358.696106 309.584656,350.084778 
z"/>
<path fill="#FFFEFE" opacity="1.000000" stroke="none" 
	d="
M310.433105,277.379913 
	C289.785706,279.312256 277.964417,292.204803 277.939941,312.381836 
	C277.916687,331.542206 277.934296,350.702606 277.933960,369.863007 
	C277.933929,371.657898 277.933990,373.452759 277.933990,375.846588 
	C275.673920,375.846588 273.895905,375.846588 272.117889,375.846588 
	C237.462570,375.846283 202.807236,375.859497 168.151917,375.840240 
	C149.601776,375.829926 138.764755,364.923004 138.760223,346.248413 
	C138.745773,286.767883 138.746140,227.287338 138.759995,167.806808 
	C138.764389,148.924606 149.601822,138.166901 168.603592,138.163544 
	C227.917511,138.153076 287.231415,138.152252 346.545349,138.164215 
	C365.462067,138.168045 376.232391,148.976883 376.240906,167.955856 
	C376.256439,202.444565 376.245697,236.933289 376.245911,271.421997 
	C376.245911,273.207977 376.245911,274.993958 376.245911,277.372345 
	C354.101532,277.372345 332.496246,277.372345 310.433105,277.379913 
M271.434143,262.933044 
	C282.901825,252.287323 294.167419,241.412659 305.894409,231.060684 
	C317.453522,220.856888 329.479950,211.182434 341.301331,201.275726 
	C301.580109,218.429871 267.043365,243.811493 232.682800,269.881226 
	C224.342392,262.006226 216.177399,254.296844 208.516388,247.063324 
	C203.193832,252.220291 198.325226,256.937439 193.805527,261.316528 
	C206.770844,274.275299 219.807190,287.305115 232.957138,300.448425 
	C245.435638,288.277100 258.178162,275.848206 271.434143,262.933044 
z"/>
<path fill="#FFFDFD" opacity="1.000000" stroke="none" 
	d="
M309.334625,350.334747 
	C301.052673,358.696106 293.020721,366.807526 283.898193,376.020325 
	C283.898193,373.214386 283.898132,371.974640 283.898193,370.734894 
	C283.899078,351.090912 283.865112,331.446808 283.911346,311.802948 
	C283.951843,294.591949 295.123199,283.406921 312.399597,283.342560 
	C331.876831,283.269989 351.354553,283.323547 370.832062,283.322266 
	C372.122498,283.322174 373.412933,283.322235 376.352539,283.322235 
	C353.383240,306.289703 331.483948,328.187256 309.334625,350.334747 
z"/>
<path fill="#E74E3E" opacity="1.000000" stroke="none" 
	d="
M271.177429,263.176208 
	C258.178162,275.848206 245.435638,288.277100 232.957138,300.448425 
	C219.807190,287.305115 206.770844,274.275299 193.805527,261.316528 
	C198.325226,256.937439 203.193832,252.220291 208.516388,247.063324 
	C216.177399,254.296844 224.342392,262.006226 232.682800,269.881226 
	C267.043365,243.811493 301.580109,218.429871 341.301331,201.275726 
	C329.479950,211.182434 317.453522,220.856888 305.894409,231.060684 
	C294.167419,241.412659 282.901825,252.287323 271.177429,263.176208 
z"/>
</svg>